<svg width="1254" height="1141" viewBox="0 0 1254 1141" fill="none" xmlns="http://www.w3.org/2000/svg">
<line x1="0.673975" y1="725.621" x2="843.674" y2="0.620892" stroke="#AC2327"/>
<line x1="16.674" y1="745.621" x2="859.674" y2="20.6208" stroke="#AC2327"/>
<line x1="36.674" y1="764.621" x2="879.674" y2="39.6208" stroke="#AC2327"/>
<line x1="44.674" y1="788.621" x2="887.674" y2="63.6208" stroke="#AC2327"/>
<line x1="60.674" y1="808.621" x2="903.674" y2="83.6208" stroke="#AC2327"/>
<line x1="80.674" y1="827.621" x2="923.674" y2="102.621" stroke="#AC2327"/>
<line x1="109.674" y1="827.621" x2="952.674" y2="102.621" stroke="#AC2327"/>
<line x1="125.674" y1="847.621" x2="968.674" y2="122.621" stroke="#AC2327"/>
<line x1="145.674" y1="866.621" x2="988.674" y2="141.621" stroke="#AC2327"/>
<line x1="153.674" y1="890.621" x2="996.674" y2="165.621" stroke="#AC2327"/>
<line x1="169.674" y1="910.621" x2="1012.67" y2="185.621" stroke="#AC2327"/>
<line x1="189.674" y1="929.621" x2="1032.67" y2="204.621" stroke="#AC2327"/>
<line x1="221.674" y1="936.621" x2="1064.67" y2="211.621" stroke="#AC2327"/>
<line x1="237.674" y1="956.621" x2="1080.67" y2="231.621" stroke="#AC2327"/>
<line x1="257.674" y1="975.621" x2="1100.67" y2="250.621" stroke="#AC2327"/>
<line x1="265.674" y1="999.621" x2="1108.67" y2="274.621" stroke="#AC2327"/>
<line x1="281.674" y1="1019.62" x2="1124.67" y2="294.621" stroke="#AC2327"/>
<line x1="301.674" y1="1038.62" x2="1144.67" y2="313.621" stroke="#AC2327"/>
<line x1="330.674" y1="1038.62" x2="1173.67" y2="313.621" stroke="#AC2327"/>
<line x1="346.674" y1="1058.62" x2="1189.67" y2="333.621" stroke="#AC2327"/>
<line x1="366.674" y1="1077.62" x2="1209.67" y2="352.621" stroke="#AC2327"/>
<line x1="374.674" y1="1101.62" x2="1217.67" y2="376.621" stroke="#AC2327"/>
<line x1="390.674" y1="1121.62" x2="1233.67" y2="396.621" stroke="#AC2327"/>
<line x1="410.674" y1="1140.62" x2="1253.67" y2="415.621" stroke="#AC2327"/>
<line x1="0.673975" y1="725.621" x2="843.674" y2="0.620892" stroke="#AC2327"/>
<line x1="16.674" y1="745.621" x2="859.674" y2="20.6208" stroke="#AC2327"/>
<line x1="36.674" y1="764.621" x2="879.674" y2="39.6208" stroke="#AC2327"/>
<line x1="44.674" y1="788.621" x2="887.674" y2="63.6208" stroke="#AC2327"/>
<line x1="60.674" y1="808.621" x2="903.674" y2="83.6208" stroke="#AC2327"/>
<line x1="80.674" y1="827.621" x2="923.674" y2="102.621" stroke="#AC2327"/>
<line x1="109.674" y1="827.621" x2="952.674" y2="102.621" stroke="#AC2327"/>
<line x1="125.674" y1="847.621" x2="968.674" y2="122.621" stroke="#AC2327"/>
<line x1="145.674" y1="866.621" x2="988.674" y2="141.621" stroke="#AC2327"/>
<line x1="153.674" y1="890.621" x2="996.674" y2="165.621" stroke="#AC2327"/>
<line x1="169.674" y1="910.621" x2="1012.67" y2="185.621" stroke="#AC2327"/>
<line x1="189.674" y1="929.621" x2="1032.67" y2="204.621" stroke="#AC2327"/>
</svg>
