<svg xmlns="http://www.w3.org/2000/svg" xmlns:xlink="http://www.w3.org/1999/xlink" viewBox="0 0 64.32 91.79"><defs><style>.cls-1{fill:#8fb6c5;}.cls-2{fill:#181a34;}.cls-3{fill:#b6b7b9;}.cls-4{fill:url(#Degradado_sin_nombre_46);}.cls-5{fill:url(#Degradado_sin_nombre_58);}.cls-6{fill:url(#Degradado_sin_nombre_46-2);}.cls-7{fill:url(#Degradado_sin_nombre_58-2);}.cls-8{fill:#989b9c;}.cls-9{font-size:27.34px;fill:#fafaf8;font-family:Geometric706BT-BlackCondensedB, Geometr706 BlkCn BT;font-weight:800;letter-spacing:-0.01em;}</style><linearGradient id="Degradado_sin_nombre_46" x1="12.84" y1="19.84" x2="33.48" y2="19.84" gradientUnits="userSpaceOnUse"><stop offset="0.12" stop-color="#dee4eb" stop-opacity="0.9"/><stop offset="0.67" stop-color="#dce3e9" stop-opacity="0.92"/><stop offset="0.92" stop-color="#d7dee4" stop-opacity="0.97"/><stop offset="1" stop-color="#d4dbe1"/></linearGradient><linearGradient id="Degradado_sin_nombre_58" x1="33.21" y1="19.85" x2="52.2" y2="19.85" gradientUnits="userSpaceOnUse"><stop offset="0" stop-color="#d4dbe1"/><stop offset="0.03" stop-color="#d1d8dd" stop-opacity="0.96"/><stop offset="0.07" stop-color="#cdd5d8" stop-opacity="0.93"/><stop offset="0.14" stop-color="#ccd3d6" stop-opacity="0.91"/><stop offset="0.29" stop-color="#cbd3d5" stop-opacity="0.9"/></linearGradient><linearGradient id="Degradado_sin_nombre_46-2" x1="12.92" y1="81.49" x2="33.12" y2="81.49" xlink:href="#Degradado_sin_nombre_46"/><linearGradient id="Degradado_sin_nombre_58-2" x1="33.3" y1="81.54" x2="52.51" y2="81.54" xlink:href="#Degradado_sin_nombre_58"/></defs><g id="Capa_2" data-name="Capa 2"><g id="Capa_1-2" data-name="Capa 1"><polygon class="cls-1" points="51.97 5.61 32.98 12.97 12.92 5.67 32.28 0 51.97 5.61"/><polygon class="cls-2" points="63.96 24.24 33.48 34.11 0 24.24 33.03 14.85 63.96 24.24"/><polygon class="cls-3" points="33.18 77.08 0 67.44 0 24.24 33.48 34.11 33.18 77.08"/><polygon class="cls-4" points="33.48 34.11 12.84 28.02 12.84 5.58 33.03 12.96 33.48 34.11"/><polygon class="cls-5" points="33.48 34.11 52.02 28.17 52.02 5.59 33.03 12.96 33.48 34.11"/><polygon class="cls-6" points="33.12 91.79 12.92 91.79 12.93 71.2 33.12 77.07 33.12 91.79"/><polygon class="cls-7" points="33.12 91.79 52.33 91.44 52.33 71.29 33.12 77.07 33.12 91.79"/><polygon class="cls-8" points="64.32 67.66 33.18 77.08 33.48 34.11 64.32 24.24 64.32 67.66"/><text class="cls-9" transform="matrix(0.82, 0.24, -0.04, 1, 11.13, 59.28)">1</text></g></g></svg>