<svg xmlns="http://www.w3.org/2000/svg" xmlns:xlink="http://www.w3.org/1999/xlink" viewBox="0 0 64.32 85.4"><defs><style>.cls-1{fill:#181a34;}.cls-2{fill:url(#Degradado_sin_nombre_46);}.cls-3{fill:url(#Degradado_sin_nombre_58);}.cls-4{fill:#6b7982;}.cls-5{fill:#526068;}.cls-6{fill:url(#Degradado_sin_nombre_46-2);}.cls-7{fill:url(#Degradado_sin_nombre_58-2);}.cls-8{font-size:27.33px;fill:#fafaf8;font-family:Geometric706BT-BlackCondensedB, Geometr706 BlkCn BT;font-weight:800;letter-spacing:-0.01em;}</style><linearGradient id="Degradado_sin_nombre_46" x1="12.54" y1="13.63" x2="32.75" y2="13.63" gradientUnits="userSpaceOnUse"><stop offset="0.12" stop-color="#dee4eb" stop-opacity="0.9"/><stop offset="0.67" stop-color="#dce3e9" stop-opacity="0.92"/><stop offset="0.92" stop-color="#d7dee4" stop-opacity="0.97"/><stop offset="1" stop-color="#d4dbe1"/></linearGradient><linearGradient id="Degradado_sin_nombre_58" x1="32.91" y1="13.45" x2="52.14" y2="13.45" gradientUnits="userSpaceOnUse"><stop offset="0" stop-color="#d4dbe1"/><stop offset="0.03" stop-color="#d1d8dd" stop-opacity="0.96"/><stop offset="0.07" stop-color="#cdd5d8" stop-opacity="0.93"/><stop offset="0.14" stop-color="#ccd3d6" stop-opacity="0.91"/><stop offset="0.29" stop-color="#cbd3d5" stop-opacity="0.9"/></linearGradient><linearGradient id="Degradado_sin_nombre_46-2" x1="12.5" y1="75.1" x2="32.7" y2="75.1" xlink:href="#Degradado_sin_nombre_46"/><linearGradient id="Degradado_sin_nombre_58-2" x1="32.88" y1="75.15" x2="52.09" y2="75.15" xlink:href="#Degradado_sin_nombre_58"/></defs><g id="Capa_2" data-name="Capa 2"><g id="Capa_1-2" data-name="Capa 1"><polygon class="cls-1" points="64.32 17.69 32.73 26.91 0 17.69 33.07 8.06 64.32 17.69"/><polygon class="cls-2" points="32.73 26.91 12.54 21.22 12.54 0.35 32.74 0.35 32.73 26.91"/><polygon class="cls-3" points="32.73 26.91 51.95 21.3 51.95 0 32.74 0.35 32.73 26.91"/><polygon class="cls-4" points="32.74 70.63 0 60.89 0 17.69 32.73 26.91 32.74 70.63"/><polygon class="cls-5" points="63.83 61.26 32.74 70.63 32.73 26.91 64.32 17.69 63.83 61.26"/><polygon class="cls-6" points="32.7 85.4 12.5 85.4 12.51 64.8 32.7 70.67 32.7 85.4"/><polygon class="cls-7" points="32.7 85.4 51.91 85.05 51.91 64.9 32.7 70.67 32.7 85.4"/><text class="cls-8" transform="matrix(0.69, 0.24, -0.03, 1, 10.82, 52.47)">5</text></g></g></svg>